<?xml version="1.0" encoding="UTF-8" standalone="no"?>
<svg
   xmlns:dc="http://purl.org/dc/elements/1.1/"
   xmlns:cc="http://creativecommons.org/ns#"
   xmlns:rdf="http://www.w3.org/1999/02/22-rdf-syntax-ns#"
   xmlns:svg="http://www.w3.org/2000/svg"
   xmlns="http://www.w3.org/2000/svg"
   xmlns:xlink="http://www.w3.org/1999/xlink"
   xmlns:sodipodi="http://sodipodi.sourceforge.net/DTD/sodipodi-0.dtd"
   xmlns:inkscape="http://www.inkscape.org/namespaces/inkscape"
   width="22"
   height="22"
   version="1.1"
   id="svg20"
   sodipodi:docname="mouse_rotation.svg"
   inkscape:version="0.92.1 r15371">
  <metadata
     id="metadata24">
    <rdf:RDF>
      <cc:Work
         rdf:about="">
        <dc:format>image/svg+xml</dc:format>
        <dc:type
           rdf:resource="http://purl.org/dc/dcmitype/StillImage" />
      </cc:Work>
    </rdf:RDF>
  </metadata>
  <sodipodi:namedview
     pagecolor="#ffffff"
     bordercolor="#666666"
     borderopacity="1"
     objecttolerance="10"
     gridtolerance="10"
     guidetolerance="10"
     inkscape:pageopacity="0"
     inkscape:pageshadow="2"
     inkscape:window-width="810"
     inkscape:window-height="480"
     id="namedview22"
     showgrid="false"
     inkscape:zoom="10.727273"
     inkscape:cx="17.292373"
     inkscape:cy="11"
     inkscape:window-x="839"
     inkscape:window-y="105"
     inkscape:window-maximized="0"
     inkscape:current-layer="svg20" />
  <defs
     id="defs14">
    <path
       d="M17.364 11.364A8.972 8.972 0 0 1 11 14a8.972 8.972 0 0 1-6.364-2.636L3 13V8h5l-2 2h.101A6.977 6.977 0 0 0 11 12a6.977 6.977 0 0 0 4.899-2H16l-2-2h5v5l-1.636-1.636z"
       id="b" />
    <filter
       x="-25%"
       y="-66.7%"
       width="150%"
       height="240.2%"
       filterUnits="objectBoundingBox"
       id="a">
      <feMorphology
         radius="1"
         operator="dilate"
         in="SourceAlpha"
         result="shadowSpreadOuter1"
         id="feMorphology3" />
      <feOffset
         in="shadowSpreadOuter1"
         result="shadowOffsetOuter1"
         id="feOffset5" />
      <feGaussianBlur
         stdDeviation="1"
         in="shadowOffsetOuter1"
         result="shadowBlurOuter1"
         id="feGaussianBlur7" />
      <feComposite
         in="shadowBlurOuter1"
         in2="SourceAlpha"
         operator="out"
         result="shadowBlurOuter1"
         id="feComposite9" />
      <feColorMatrix
         values="0 0 0 0 0 0 0 0 0 0 0 0 0 0 0 0 0 0 0.400076486 0"
         in="shadowBlurOuter1"
         id="feColorMatrix11" />
    </filter>
  </defs>
  <use
     xlink:href="#b"
     id="use16"
     transform="matrix(1,0,0,-1,0,22.408008)"
     style="filter:url(#a)"
     x="0"
     y="0"
     width="100%"
     height="100%" />
  <path
     d="M 17.355,10.346008 A 9.466,9.466 0 0 0 11,7.9080076 9.466,9.466 0 0 0 4.645,10.346008 L 2.5,8.2010076 v 6.7070004 h 6.707 l -2.436,-2.436 a 6.473,6.473 0 0 1 4.229,-1.564 6.473,6.473 0 0 1 4.23,1.564 l -2.438,2.436 H 19.5 V 8.2010076 Z"
     id="path18"
     inkscape:connector-curvature="0"
     style="fill-rule:evenodd;stroke:#ffffff" />
</svg>
